<svg width="40" height="40" xmlns="http://www.w3.org/2000/svg" preserveAspectRatio="xMidYMid meet" version="1.0" stroke="null">
 <metadata stroke="null">Created by potrace 1.15, written by Peter Selinger 2001-2017</metadata>

 <g stroke="null">
  <title stroke="null">Layer 1</title>
  <g id="svg_1" fill="#000000" transform="translate(0 1280) scale(0.1 -0.1)" stroke="null">
   <path id="svg_2" d="m250.50936,12714.59448c-0.57084,-0.06637 -2.94431,-0.29867 -5.2577,-0.49778c-2.31339,-0.19911 -6.09893,-0.69689 -8.44236,-1.1283c-13.09918,-2.45571 -21.21106,-6.43794 -27.79069,-13.7387c-1.59233,-1.75882 -3.24475,-3.71675 -3.66537,-4.34727l-0.81119,-1.16148l-0.78114,1.16148c-3.12458,4.54638 -9.7643,10.28743 -14.87178,12.87588c-14.72156,7.49987 -41.82124,8.82728 -74.77949,3.68356c-6.0088,-0.92919 -18.59723,-3.35171 -22.65317,-4.34727l-1.80264,-0.43141l-5.34783,-8.46224c-4.29629,-6.76979 -5.49805,-8.49543 -6.18906,-8.66135c-0.45066,-0.13274 -5.88862,-0.46459 -12.07768,-0.76326c-13.54984,-0.66371 -13.76015,-0.66371 -14.12068,-1.62608c-0.15022,-0.39822 -0.7511,-9.02639 -1.35198,-19.14789c-0.60088,-10.1215 -1.41207,-23.72746 -1.80264,-30.19858c-0.42062,-6.47112 -1.47215,-24.15886 -2.40352,-39.32453c-0.90132,-15.13248 -1.86273,-30.76273 -2.10308,-34.67859c-0.24035,-3.91586 -0.99145,-16.09485 -1.65242,-27.04598c-0.66097,-10.95113 -1.26185,-20.87352 -1.35198,-22.06819c-0.06009,-1.19467 -0.30044,-4.61275 -0.4807,-7.63261l-0.33048,-5.47557l1.74255,-5.07734c0.99145,-2.82075 1.9829,-5.21008 2.22326,-5.37601c0.24035,-0.13274 9.25355,0.39822 19.97925,1.19467c33.19861,2.42252 41.85128,3.05304 67.59898,4.9446c13.7301,0.99556 29.32293,2.15704 34.70081,2.55526l9.7643,0.69689l4.5066,-1.69245c8.35223,-3.1526 14.66147,-4.74549 21.33123,-5.4092c8.7428,-0.86282 18.65732,1.06193 27.88082,5.4092c3.42502,1.62608 3.81559,1.72563 5.91867,1.65926c1.2318,-0.03318 30.91527,-2.0243 65.91652,-4.41364c51.9761,-3.51764 63.75335,-4.24771 64.02374,-3.88267c0.21031,0.2323 1.08158,2.65482 1.95286,5.37601l1.59233,4.91142l-1.86273,29.10347c-3.2748,51.33759 -6.54959,102.67518 -8.32219,130.61716c-1.20176,19.28063 -1.83268,27.34465 -2.10308,27.6765c-0.30044,0.36504 -2.49365,0.56415 -9.64412,0.896c-5.07743,0.2323 -10.7257,0.49778 -12.55839,0.59733c-1.80264,0.09956 -3.84563,0.19911 -4.53664,0.19911l-1.20176,0l-5.19761,7.93128c-4.11603,6.33838 -5.31779,7.99765 -5.97875,8.13039c-11.05619,2.52208 -26.7692,5.11053 -38.54644,6.37157c-4.59673,0.46459 -26.37862,0.92919 -29.11263,0.59733l0,0l0,0.00002zm25.23695,-21.53723c9.37373,-0.92919 22.2626,-2.75438 29.92381,-4.18134l1.83268,-0.36504l0.21031,-4.01542c0.09013,-2.22341 0.33048,-7.10164 0.4807,-10.85158c1.26185,-29.43532 2.10308,-49.44603 2.2533,-52.10085c0.33048,-6.93572 0.51075,-10.95113 1.35198,-31.19414c0.4807,-11.58165 0.96141,-22.16775 1.05154,-23.52834l0.18026,-2.42252l-0.99145,0.13274c-0.54079,0.09956 -4.29629,0.69689 -8.35223,1.3606c-14.90182,2.42252 -22.92356,3.05304 -39.95851,3.05304c-14.09063,0 -17.42551,-0.19911 -24.93651,-1.52652c-10.33513,-1.792 -19.37837,-5.97335 -26.64902,-12.27854c-1.05154,-0.896 -2.01295,-1.62608 -2.19321,-1.62608c-0.18026,0 -0.30044,15.79618 -0.36053,46.22706c-0.12018,67.59836 -0.12018,66.50325 0.30044,68.75985c1.80264,9.19232 5.13752,14.07055 12.43821,18.25189c5.91867,3.3849 14.42112,5.74105 24.57598,6.80298c4.32634,0.43141 22.7433,0.13274 28.84223,-0.49778l0,0l0.00002,-0.00001zm-108.75925,-0.13274c4.41647,-0.59733 10.06474,-1.95793 13.42966,-3.18578c10.18491,-3.74993 16.10358,-9.88921 18.77749,-19.47974l0.69101,-2.42252l0.09013,-57.01227c0.06009,-45.96158 0,-56.97908 -0.30044,-56.74678c-0.21031,0.13274 -1.56229,1.1283 -3.0044,2.19023c-8.2621,6.0729 -19.10798,9.85602 -33.28874,11.71439c-5.55814,0.69689 -20.33978,0.96237 -27.49025,0.49778c-10.15487,-0.69689 -22.35273,-2.09067 -33.61923,-3.84949c-2.82414,-0.46459 -5.13752,-0.76326 -5.19761,-0.69689c-0.06009,0.06637 0.09013,4.9446 0.33048,10.85158c0.2704,5.90697 0.66097,15.99529 0.93136,22.36686c0.24035,6.40475 0.51075,13.17455 0.60088,15.09929c0.39057,8.89365 0.4807,11.51528 0.90132,22.06819c0.24035,6.20564 0.72106,17.7873 1.05154,25.71857c0.33048,7.93128 0.66097,17.12359 0.78114,20.40893c0.12018,3.28534 0.30044,6.27201 0.45066,6.67024c0.18026,0.53096 0.63092,0.76326 2.28334,1.06193c1.11163,0.2323 3.99585,0.76326 6.39937,1.22785c8.23205,1.55971 17.99635,2.88712 25.98805,3.48445c2.64387,0.19911 5.40792,0.39822 6.15902,0.46459c2.91427,0.26548 21.33123,-0.09956 24.03519,-0.43141l0,0l0.00003,0zm-77.66372,-22.16775c-0.09013,-1.62608 -0.42062,-9.02639 -0.7511,-16.52626c-0.33048,-7.46668 -0.81119,-17.92004 -1.05154,-23.22968c-0.54079,-11.41573 -1.47215,-32.52155 -2.10308,-46.62528c-0.4807,-10.68565 -0.63092,-13.87144 -0.93136,-19.74523l-0.21031,-3.61719l-4.5066,-7.49987c-2.46361,-4.11497 -4.62678,-7.59942 -4.77699,-7.79853c-0.30044,-0.29867 -0.18026,5.50875 0.21031,11.94669c0.09013,1.29423 0.36053,6.50431 0.60088,11.61484c0.24035,5.11053 0.72106,14.83381 1.05154,21.57042c0.33048,6.76979 0.87128,17.95322 1.20176,24.88894c0.33048,6.93572 0.81119,16.79174 1.05154,21.90227c0.24035,5.11053 0.51075,10.48654 0.60088,11.94669c0.06009,1.46015 0.24035,4.38045 0.33048,6.47112l0.21031,3.8163l4.53664,6.86935c2.49365,3.8163 4.56669,6.90253 4.62678,6.90253c0.06009,0 0.03004,-1.29423 -0.09013,-2.88712l0,0l-0.00001,0.00001zm235.66506,-4.51319l4.47656,-6.90253l0.18026,-3.05304c0.09013,-1.69245 0.45066,-8.36268 0.78114,-14.83381c0.33048,-6.47112 0.87128,-16.99085 1.20176,-23.3956c1.7726,-34.11444 2.49365,-47.68721 2.85418,-55.25345c0.09013,-1.72563 0.30044,-5.37601 0.45066,-8.13039c0.15022,-2.72119 0.30044,-5.77423 0.30044,-6.76979l0,-1.792l-4.92721,7.86491l-4.92721,7.83172l-0.18026,2.9203c-0.12018,1.59289 -0.54079,10.05513 -0.93136,18.81604c-0.42062,8.76091 -1.17171,24.29161 -1.65242,34.51266c-0.51075,10.22106 -1.17171,24.25842 -1.5022,31.19414c-0.63092,13.44003 -0.78114,16.4267 -1.08158,21.40449c-0.12018,2.22341 -0.09013,3.05304 0.15022,2.82075c0.18026,-0.19911 2.31339,-3.45127 4.80704,-7.23438l0,0l-0.00002,-0.00002zm21.18101,1.82519c0.09013,-1.22785 0.24035,-3.48445 0.33048,-5.04416c0.09013,-1.55971 0.63092,-10.88476 1.20176,-20.74078c1.05154,-17.72093 1.41207,-24.05931 3.7555,-63.88161c0.66097,-11.21662 1.41207,-23.92657 1.65242,-28.20747c0.24035,-4.2809 0.51075,-8.92683 0.60088,-10.28743c0.09013,-1.3606 0.42062,-7.10164 0.7511,-12.77632c0.33048,-5.64149 0.66097,-11.38254 0.7511,-12.74314l0.18026,-2.42252l-3.99585,0.2323c-2.19321,0.13274 -4.05594,0.29867 -4.11603,0.36504c-0.06009,0.06637 0.42062,2.19023 1.11163,4.71231l1.26185,4.54638l-0.30044,4.81186c-0.15022,2.65482 -1.5022,26.31591 -3.0044,52.59863c-1.5022,26.28272 -3.24475,57.24456 -3.90572,68.82622c-0.66097,11.58165 -1.20176,21.3713 -1.20176,21.73634c0,0.66371 0.15022,0.69689 2.37348,0.59733l2.37348,-0.09956l0.18026,-2.22341l0,0l0,-0.00001zm-278.17731,-2.28978c-0.09013,-1.42697 -0.51075,-8.9932 -0.90132,-16.85811c-0.78114,-14.4024 -1.5022,-28.17428 -1.80264,-33.35118c-0.21031,-3.71675 -1.62238,-29.9331 -3.45506,-64.71124c-0.4807,-9.2255 -0.96141,-17.65455 -1.0215,-18.74967c-0.09013,-1.09511 -0.24035,-4.18134 -0.36053,-6.83616l-0.21031,-4.84505l1.29189,-4.21453c0.69101,-2.32297 1.20176,-4.2809 1.11163,-4.38045c-0.15022,-0.16593 -7.81144,-0.79645 -7.96166,-0.66371c-0.03004,0.06637 0.7511,14.6347 1.74255,32.42199c0.99145,17.7873 2.28334,40.91742 2.85418,51.40396c0.57084,10.48654 1.11163,20.20982 1.20176,21.57042c0.09013,1.3606 0.69101,12.21217 1.35198,24.05931c0.66097,11.88032 1.26185,22.9642 1.38202,24.65664l0.18026,3.05304l2.40352,0l2.37348,0l-0.18026,-2.55526l0,0l0.00001,0zm201.7454,-116.5798c13.48975,-0.69689 24.93651,-2.05749 40.91992,-4.84505l6.81999,-1.19467l3.60528,-6.00653c1.9829,-3.31853 3.57524,-6.03972 3.54519,-6.0729c-0.03004,-0.06637 -8.05179,0.49778 -17.78604,1.19467c-18.26675,1.32741 -46.9888,3.3849 -66.9981,4.81186c-6.27919,0.43141 -12.13777,0.86282 -13.00905,0.96237c-1.53224,0.13274 -1.62238,0.09956 -3.30484,-1.49334c-0.93136,-0.896 -2.85418,-2.28978 -4.26625,-3.08623c-2.5237,-1.46015 -6.54959,-3.01986 -6.85003,-2.68801c-0.09013,0.09956 0.4807,1.22785 1.26185,2.48889c7.48095,12.04625 26.43871,17.45544 56.06209,15.92892l-0.00001,0.00002zm-111.76365,-0.33185c17.21521,-1.09511 27.46021,-4.48001 34.06988,-11.28299c1.68246,-1.69245 4.56669,-6.0729 4.14607,-6.23883c-0.4807,-0.16593 -4.92721,1.85837 -6.51955,2.95349c-0.84123,0.56415 -2.07304,1.62608 -2.79409,2.35615l-1.29189,1.29423l-2.01295,-0.19911c-1.11163,-0.09956 -11.7472,-0.92919 -23.64462,-1.82519c-25.35713,-1.92474 -33.79949,-2.55526 -56.4827,-4.31408c-9.25355,-0.69689 -16.85468,-1.22785 -16.91477,-1.16148c-0.12018,0.09956 6.39937,11.34936 6.97021,12.04625c0.45066,0.49778 4.44651,1.29423 15.5027,3.05304c18.86763,2.98667 35.93261,4.14816 48.97171,3.31853l0,0l0,-0.00001z" stroke="null" fill="#e5e51d"/>
  </g>
 </g>
</svg>